External Loads File
version=1
nRows=69
nColumns=13
Range=5.000000e-03-10 seconds
endheader
time 	forceRightX 	forceRightY 	forceRightZ 	pointRightX 	pointRightY 	pointRightZ 	forceLeftX 	forceLeftY 	forceLeftZ 	pointLeftX 	pointLeftY 	pointLeftZ 		
2.505000 -69.033358 -123.426732 -0.000000 0.195848 0.201411 -0.124405 -140.652253 497.970927 -0.000000 0.432738 0.408857 -0.370667
2.510000 -60.065731 -108.993400 -0.000000 0.192617 0.206704 -0.124356 -147.254247 507.028621 -0.000000 0.435441 0.403508 -0.370684
2.515000 -51.009001 -94.936238 -0.000000 0.189582 0.211970 -0.124220 -153.610379 516.987649 -0.000000 0.437946 0.398058 -0.370676
2.520000 -42.179362 -81.435742 -0.000000 0.186658 0.217450 -0.124164 -159.400978 527.916932 -0.000000 0.440208 0.392504 -0.370711
2.525000 -33.776669 -68.734942 -0.000000 0.183780 0.223105 -0.124033 -164.445873 539.828922 -0.000000 0.442296 0.386767 -0.370745
2.530000 -25.864164 -57.151490 -0.000000 0.181188 0.229089 -0.124129 -169.194709 552.527027 -0.000000 0.443841 0.380928 -0.371050
2.535000 -18.582520 -46.971432 -0.000000 0.179024 0.235341 -0.124347 -173.129679 566.114171 -0.000000 0.445424 0.374901 -0.371087
2.540000 -11.947025 -38.525250 -0.000000 0.176891 0.241419 -0.124517 -176.864468 580.350613 -0.000000 0.446860 0.368759 -0.371099
2.545000 -6.058483 -32.048611 -0.000000 0.174952 0.247100 -0.124546 -180.667040 595.078186 -0.000000 0.448912 0.362682 -0.370669
2.550000 -1.060532 -27.661472 -0.000000 0.173386 0.252685 -0.124457 -184.952390 610.055859 -0.000000 0.450090 0.356478 -0.370775
2.555000 2.792760 -25.348663 -0.000000 0.171947 0.258718 -0.124405 -187.867790 625.704262 -0.000000 0.451071 0.350192 -0.370647
2.560000 5.400644 -24.970013 -0.000000 0.170755 0.265069 -0.124391 -189.800297 641.762710 -0.000000 0.451691 0.343873 -0.370857
2.565000 6.750841 -26.249040 -0.000000 0.169781 0.271160 -0.124359 -191.616038 657.858250 -0.000000 0.452312 0.337475 -0.370970
2.570000 6.878828 -28.843434 -0.000000 0.169074 0.277255 -0.124256 -192.953103 674.001864 -0.000000 0.452919 0.331021 -0.370812
2.575000 5.948404 -32.364835 -0.000000 0.168542 0.283253 -0.124343 -194.419198 689.922308 -0.000000 0.453242 0.324592 -0.370639
2.580000 4.049055 -36.444767 -0.000000 0.168446 0.290037 -0.124349 -193.769326 706.167785 -0.000000 0.453743 0.318121 -0.370529
2.585000 1.558595 -40.705507 -0.000000 0.168430 0.296439 -0.124405 -194.009116 721.881460 -0.000000 0.453843 0.311620 -0.370448
2.590000 -1.326272 -44.850575 -0.000000 0.168605 0.302946 -0.124459 -194.054756 737.427306 -0.000000 0.453842 0.305109 -0.370399
2.595000 -4.337190 -48.619138 -0.000000 0.169036 0.309390 -0.124557 -194.385176 752.799577 -0.000000 0.453836 0.298595 -0.370679
2.600000 -7.246822 -51.807795 -0.000000 0.169656 0.315762 -0.124692 -195.109615 768.130239 -0.000000 0.453483 0.292140 -0.370151
2.605000 -9.884981 -54.295947 -0.000000 0.170522 0.322138 -0.124750 -195.881644 783.669453 -0.000000 0.453103 0.285727 -0.370117
2.610000 -12.113135 -56.066010 -0.000000 0.171742 0.328480 -0.124752 -196.494405 799.601324 -0.000000 0.452468 0.279356 -0.369991
2.615000 -13.844187 -57.199740 -0.000000 0.173107 0.334806 -0.124745 -196.934888 816.024511 -0.000000 0.451643 0.273099 -0.369889
2.620000 -15.096092 -57.857579 -0.000000 0.174710 0.341052 -0.124805 -196.820261 833.091707 -0.000000 0.450605 0.266884 -0.369757
2.625000 -15.983374 -58.252171 -0.000000 0.176559 0.347347 -0.124821 -195.345409 851.008527 -0.000000 0.449378 0.260668 -0.369639
2.630000 -16.645559 -58.613277 -0.000000 0.178645 0.353812 -0.124903 -191.960907 869.854892 -0.000000 0.447910 0.254495 -0.369546
2.635000 -17.154694 -59.155369 -0.000000 0.180879 0.360140 -0.124980 -187.478256 889.341828 -0.000000 0.446202 0.248378 -0.369425
2.640000 -17.690793 -59.998511 -0.000000 0.183346 0.366457 -0.125081 -181.236205 909.445935 -0.000000 0.444268 0.242283 -0.369302
2.645000 -18.406752 -61.209340 -0.000000 0.186096 0.372882 -0.125051 -172.838900 930.012466 -0.000000 0.442055 0.236268 -0.369263
2.650000 -19.316913 -62.841872 -0.000000 0.188852 0.379055 -0.125231 -163.705615 950.511818 -0.000000 0.439610 0.230305 -0.369164
2.655000 -20.615056 -64.841171 -0.000000 0.191941 0.385324 -0.125289 -152.214814 970.952728 -0.000000 0.436938 0.224324 -0.369136
2.660000 -22.319952 -67.146769 -0.000000 0.195122 0.391630 -0.125438 -139.022364 990.914483 -0.000000 0.434083 0.218281 -0.369105
2.665000 -24.395982 -69.661105 -0.000000 0.198592 0.397809 -0.125545 -125.009083 1009.971207 -0.000000 0.430987 0.212479 -0.369145
2.670000 -26.820867 -72.242024 -0.000000 0.202111 0.404016 -0.125678 -110.239006 1027.804255 -0.000000 0.427705 0.206859 -0.369108
2.675000 -29.527306 -74.740364 -0.000000 0.205842 0.410009 -0.125900 -95.042029 1044.029661 -0.000000 0.424261 0.201389 -0.368966
2.680000 -32.482158 -76.985437 -0.000000 0.209921 0.415871 -0.126022 -79.096891 1058.297063 -0.000000 0.420703 0.196087 -0.368905
2.685000 -35.581903 -78.843421 -0.000000 0.213983 0.421589 -0.126249 -62.910273 1070.135274 -0.000000 0.416867 0.190913 -0.368833
2.690000 -38.745856 -80.197179 -0.000000 0.218369 0.427052 -0.126368 -46.577980 1079.044367 -0.000000 0.412976 0.185908 -0.368779
2.695000 -41.919798 -80.939811 -0.000000 0.222862 0.432486 -0.126521 -29.932482 1084.461907 -0.000000 0.408901 0.181113 -0.368713
2.700000 -45.018170 -80.993304 -0.000000 0.227529 0.437799 -0.126618 -13.248368 1085.757614 -0.000000 0.404762 0.176495 -0.368701
2.705000 -47.939492 -80.311086 -0.000000 0.232343 0.442770 -0.126738 3.158283 1082.287682 -0.000000 0.400537 0.172004 -0.368896
2.710000 -50.652622 -78.834937 -0.000000 0.237290 0.447735 -0.126947 20.014221 1073.423558 -0.000000 0.396057 0.167845 -0.368750
2.715000 -52.996099 -76.609247 -0.000000 0.242353 0.452540 -0.127107 36.125209 1058.681286 -0.000000 0.391536 0.164143 -0.368575
2.720000 -55.045858 -73.532355 -0.000000 0.248077 0.456918 -0.126501 53.164417 1037.754926 -0.000000 0.386861 0.160714 -0.368379
2.725000 -56.515551 -69.796978 -0.000000 0.252936 0.461364 -0.127184 67.134507 1010.888819 -0.000000 0.382101 0.157431 -0.368233
2.730000 -57.702464 -65.216799 -0.000000 0.258554 0.465412 -0.127526 81.713754 978.162327 -0.000000 0.377241 0.154371 -0.367998
2.735000 -58.508853 -59.974042 -0.000000 0.264078 0.469257 -0.127623 94.514838 940.142814 -0.000000 0.372280 0.151514 -0.367803
2.740000 -59.024216 -54.147599 -0.000000 0.269377 0.473486 -0.127753 105.375655 897.346709 -0.000000 0.367295 0.148744 -0.367669
2.745000 -59.446965 -47.711876 -0.000000 0.275270 0.476737 -0.127517 115.484171 850.121046 -0.000000 0.362093 0.146173 -0.367321
2.750000 -59.789981 -40.867052 -0.000000 0.280859 0.479822 -0.127747 122.505810 799.257563 -0.000000 0.356929 0.143809 -0.367205
2.755000 -60.269558 -33.559656 -0.000000 0.286727 0.482618 -0.127857 127.774171 745.084357 -0.000000 0.351741 0.141768 -0.367027
2.760000 -60.954985 -25.875377 -0.000000 0.292597 0.485017 -0.127881 130.699654 688.207296 -0.000000 0.346497 0.139948 -0.366834
2.765000 -61.879911 -17.880750 -0.000000 0.298315 0.487197 -0.127802 131.056935 629.227172 -0.000000 0.341218 0.138315 -0.366776
2.770000 -63.049280 -9.451892 -0.000000 0.304683 0.489078 -0.127866 130.238981 568.454057 -0.000000 0.335888 0.137068 -0.366658
2.775000 -64.328431 -0.781564 -0.000000 0.310344 0.490585 -0.127797 126.100194 507.079205 -0.000000 0.330532 0.136055 -0.366498
2.780000 -65.619190 8.383475 -0.000000 0.316472 0.491607 -0.127464 120.266516 445.634598 -0.000000 0.325514 0.135119 -0.367336
2.785000 -66.742060 18.192262 -0.000000 0.322391 0.492589 -0.127340 113.096420 385.125801 -0.000000 0.320093 0.134658 -0.367393
2.790000 -67.494302 28.775755 -0.000000 0.328268 0.493247 -0.127234 104.978896 326.755242 -0.000000 0.314454 0.134604 -0.367420
2.795000 -67.687178 40.257159 -0.000000 0.334071 0.493732 -0.127087 96.409514 271.811362 -0.000000 0.308647 0.134763 -0.367344
2.800000 -67.107110 52.903886 -0.000000 0.339673 0.493791 -0.127044 88.341796 221.368442 -0.000000 0.302162 0.135295 -0.366415
2.805000 -65.728389 66.867026 -0.000000 0.345290 0.493596 -0.126932 80.998016 176.549844 -0.000000 0.295892 0.136205 -0.366421
2.810000 -63.413771 82.578271 -0.000000 0.350853 0.493218 -0.126785 75.265521 137.860338 -0.000000 0.289282 0.137537 -0.366296
2.815000 -60.189812 100.340858 -0.000000 0.356218 0.492446 -0.126657 71.411777 105.602834 -0.000000 0.282467 0.139192 -0.366300
2.820000 -56.075289 120.474336 -0.000000 0.361369 0.491320 -0.126532 69.594702 79.642909 -0.000000 0.275393 0.141219 -0.366242
2.825000 -51.201653 143.195227 -0.000000 0.366372 0.489953 -0.126329 69.626519 59.610148 -0.000000 0.268281 0.143496 -0.366215
2.830000 -45.856732 168.600700 -0.000000 0.371214 0.488142 -0.126060 71.065742 45.035140 -0.000000 0.261621 0.146095 -0.367006
2.835000 -39.890121 196.772912 -0.000000 0.375947 0.486012 -0.125765 73.434356 35.234462 -0.000000 0.254781 0.148942 -0.366926
2.840000 -33.691944 227.432061 -0.000000 0.380504 0.483538 -0.125450 76.064222 29.770453 -0.000000 0.248300 0.152016 -0.366859
2.845000 -27.471326 260.129489 -0.000000 0.384876 0.480976 -0.125083 78.493314 28.038773 -0.000000 0.242078 0.155235 -0.366569
